<svg fill="#ffc6c687" xmlns="http://www.w3.org/2000/svg" xmlns:xlink="http://www.w3.org/1999/xlink" version="1.1" x="0px" y="0px" viewBox="0 0 100 125" xml:space="preserve"><path d="M50,2C23.5,2,2,23.5,2,50c0,26.5,21.5,48,48,48s48-21.5,48-48C98,23.5,76.5,2,50,2z M43.2,59l-9.5,9.5h6.5  c0.8,0,1.5,0.7,1.5,1.5s-0.7,1.5-1.5,1.5H30c-0.2,0-0.4,0-0.5-0.1c0,0,0,0,0,0c-0.4-0.2-0.7-0.4-0.8-0.8c0,0,0,0,0,0  c-0.1-0.2-0.1-0.4-0.1-0.5V59.9c0-0.8,0.7-1.5,1.5-1.5s1.5,0.7,1.5,1.5v6.5l9.5-9.5c0.6-0.6,1.5-0.6,2.1,0S43.7,58.4,43.2,59z   M48,31.5H31.5V48c0,0.8-0.7,1.5-1.5,1.5s-1.5-0.7-1.5-1.5V30c0-0.8,0.7-1.5,1.5-1.5h18c0.8,0,1.5,0.7,1.5,1.5S48.8,31.5,48,31.5z   M71.5,70c0,0.8-0.7,1.5-1.5,1.5H52c-0.8,0-1.5-0.7-1.5-1.5s0.7-1.5,1.5-1.5h16.5V52c0-0.8,0.7-1.5,1.5-1.5s1.5,0.7,1.5,1.5V70z   M71.5,40.1c0,0.8-0.7,1.5-1.5,1.5s-1.5-0.7-1.5-1.5v-6.5L59,43.2c-0.3,0.3-0.7,0.4-1.1,0.4s-0.8-0.1-1.1-0.4  c-0.6-0.6-0.6-1.5,0-2.1l9.5-9.5h-6.5c-0.8,0-1.5-0.7-1.5-1.5s0.7-1.5,1.5-1.5H70c0.2,0,0.4,0,0.5,0.1c0,0,0,0,0,0  c0.4,0.2,0.7,0.4,0.8,0.8c0,0,0,0,0,0c0.1,0.2,0.1,0.4,0.1,0.5V40.1z"/>
</svg>