<svg xmlns="http://www.w3.org/2000/svg" viewBox="0 0 512 640" fill="#ffffff">
    <g>
        <path d="M457,105c0-27.57-22.43-50-50-50h-75.515c-5.522,0-10,4.477-10,10s4.478,10,10,10H407c16.542,0,30,13.458,30,30v80.971c0,5.523,4.478,10,10,10s10-4.477,10-10V105z" />
        <path d="M447,321.486c-5.522,0-10,4.477-10,10V407c0,16.542-13.458,30-30,30h-75.515c-5.522,0-10,4.477-10,10s4.478,10,10,10H407c27.57,0,50-22.43,50-50v-75.514C457,325.963,452.522,321.486,447,321.486z" />
        <path d="M65,321.486c-5.522,0-10,4.477-10,10V407c0,27.57,22.43,50,50,50h75.515c5.522,0,10-4.477,10-10s-4.478-10-10-10H105c-16.542,0-30-13.458-30-30v-75.514C75,325.963,70.522,321.486,65,321.486z" />
        <path d="M195.972,65c0-5.523-4.478-10-10-10H105c-27.57,0-50,22.43-50,50v75.514c0,5.523,4.478,10,10,10s10-4.477,10-10V105c0-16.542,13.458-30,30-30h80.972C191.494,75,195.972,70.523,195.972,65z" />
    </g>
</svg>
