<!-- <?xml version="1.0" encoding="UTF-8"?> -->
<svg fill="#ffc6c687"  width="1200pt" height="1200pt" version="1.1" viewBox="0 0 1200 1200" xmlns="http://www.w3.org/2000/svg">
 <path d="m1087.5 75h-975c-9.9453 0-19.484 3.9492-26.516 10.984-7.0352 7.0312-10.984 16.57-10.984 26.516v975c0 9.9453 3.9492 19.484 10.984 26.516 7.0312 7.0352 16.57 10.984 26.516 10.984h975c9.9453 0 19.484-3.9492 26.516-10.984 7.0352-7.0312 10.984-16.57 10.984-26.516v-975c0-9.9453-3.9492-19.484-10.984-26.516-7.0312-7.0352-16.57-10.984-26.516-10.984zm-637.5 900h-187.5c-9.9453 0-19.484-3.9492-26.516-10.984-7.0352-7.0312-10.984-16.57-10.984-26.516v-187.5c0-13.398 7.1484-25.777 18.75-32.477 11.602-6.6992 25.898-6.6992 37.5 0 11.602 6.6992 18.75 19.078 18.75 32.477v150h150c13.398 0 25.777 7.1484 32.477 18.75 6.6992 11.602 6.6992 25.898 0 37.5-6.6992 11.602-19.078 18.75-32.477 18.75zm0-675h-150v150c0 13.398-7.1484 25.777-18.75 32.477-11.602 6.6992-25.898 6.6992-37.5 0-11.602-6.6992-18.75-19.078-18.75-32.477v-187.5c0-9.9453 3.9492-19.484 10.984-26.516 7.0312-7.0352 16.57-10.984 26.516-10.984h187.5c13.398 0 25.777 7.1484 32.477 18.75 6.6992 11.602 6.6992 25.898 0 37.5-6.6992 11.602-19.078 18.75-32.477 18.75zm525 637.5c0 9.9453-3.9492 19.484-10.984 26.516-7.0312 7.0352-16.57 10.984-26.516 10.984h-187.5c-13.398 0-25.777-7.1484-32.477-18.75-6.6992-11.602-6.6992-25.898 0-37.5 6.6992-11.602 19.078-18.75 32.477-18.75h150v-150c0-13.398 7.1484-25.777 18.75-32.477 11.602-6.6992 25.898-6.6992 37.5 0 11.602 6.6992 18.75 19.078 18.75 32.477zm0-487.5c0 13.398-7.1484 25.777-18.75 32.477-11.602 6.6992-25.898 6.6992-37.5 0-11.602-6.6992-18.75-19.078-18.75-32.477v-150h-150c-13.398 0-25.777-7.1484-32.477-18.75-6.6992-11.602-6.6992-25.898 0-37.5 6.6992-11.602 19.078-18.75 32.477-18.75h187.5c9.9453 0 19.484 3.9492 26.516 10.984 7.0352 7.0312 10.984 16.57 10.984 26.516z"/>
</svg>
