<svg xmlns="http://www.w3.org/2000/svg" version="1.1" viewBox="-5.0 -10.0 110.0 135.0">
 <path fill="#e0e0e0" d="m79.867 41.766-46.047-29.832c-3.6406-2.3633-8.2852-2.543-12.098-0.46875-3.8164 2.0742-6.1914 6.0664-6.1914 10.406v56.258c-0.035156 4.3477 2.3516 8.3594 6.1914 10.406 3.8047 2.1094 8.4688 1.9297 12.098-0.46484l46.047-29.836c2.8594-1.7578 4.5977-4.875 4.5977-8.2344 0-3.3555-1.7383-6.4727-4.5977-8.2305zm-3.2227 11.5-46.043 29.836c-1.8242 1.1797-4.1445 1.2695-6.0508 0.23047-1.9102-1.0352-3.0977-3.0312-3.0977-5.2031v-56.258c-0.046875-2.1797 1.1562-4.1992 3.0977-5.1992 0.87109-0.48828 1.8516-0.74609 2.8477-0.75781 1.1406 0.011719 2.2539 0.35547 3.1992 0.99219l46.047 29.832c1.1758 0.66406 1.8984 1.9102 1.8984 3.2617s-0.72266 2.5977-1.8984 3.2617z"/>
</svg>