<svg xmlns="http://www.w3.org/2000/svg" viewBox="0 0 30 40" fill="none" x="0px" y="0px">
<path fill-rule="evenodd" clip-rule="evenodd" d="M5 0C2.23858 0 0 2.23858 0 5V27C0 29.7614 2.23858 32 5 32H7C9.76142 32 12 29.7614 12 27V5C12 2.23858 9.76142 0 7 0H5ZM2 5C2 3.34315 3.34315 2 5 2H7C8.65685 2 10 3.34315 10 5V27C10 28.6569 8.65685 30 7 30H5C3.34315 30 2 28.6569 2 27V5Z" fill="white"/>
<path fill-rule="evenodd" clip-rule="evenodd" d="M23 0C20.2386 0 18 2.23858 18 5V27C18 29.7614 20.2386 32 23 32H25C27.7614 32 30 29.7614 30 27V5C30 2.23858 27.7614 0 25 0H23ZM20 5C20 3.34315 21.3431 2 23 2H25C26.6569 2 28 3.34315 28 5V27C28 28.6569 26.6569 30 25 30H23C21.3431 30 20 28.6569 20 27V5Z" fill="white"/>
</svg>