<svg xmlns="http://www.w3.org/2000/svg" viewBox="0 0 100 115">
  <path d="M42.414 19.301c6.727-4.719 15.586 0.336 15.586 8.313v44.773c0 7.977-8.859 13.035-15.586 8.313L23.809 67.649h-8.867c-5.574 0-9.941-4.606-9.941-10.102V42.453c0-5.496 4.367-10.102 9.941-10.102h8.867zm8.586 8.313c0-2.641-2.746-3.859-4.566-2.582l-20.414 14.32H14.942c-1.543 0-2.941 1.305-2.941 3.102v15.094c0 1.797 1.398 3.102 2.941 3.102h11.078l20.414 14.32c1.82 1.277 4.566 0.059 4.566-2.582z" fill="#e0e0e0" fill-rule="evenodd"/>
  <!-- <path d="M79.074 22.477c1.391-1.34 3.609-1.297 4.949 0.098 6.793 7.063 10.977 16.754 10.977 27.426s-4.184 20.363-10.977 27.426c-1.34 1.395-3.559 1.438-4.949 0.098-1.395-1.34-1.438-3.559-0.098-4.949 5.574-5.793 9.023-13.758 9.023-22.574s-3.449-16.781-9.023-22.574c-1.34-1.391-1.297-3.609 0.098-4.949z" fill="white"/> -->
  <!-- <path d="M70.098 31.656c-1.293-1.438-3.508-1.551-4.941-0.254-1.438 1.293-1.551 3.508-0.254 4.941 3.125 3.465 5.098 8.281 5.098 13.656s-1.973 10.191-5.098 13.656c-1.297 1.434-1.184 3.648 0.254 4.941 1.434 1.297 3.648 1.184 4.941-0.254 4.297-4.762 6.902-11.25 6.902-18.344s-2.605-13.582-6.902-18.344z" fill="white"/> -->
</svg>
